<svg xmlns="http://www.w3.org/2000/svg" viewBox="0 0 1200 630" role="img" aria-label="ReelScout preview image">
  <defs>
    <linearGradient id="bg" x1="0" y1="0" x2="1" y2="1">
      <stop offset="0%" stop-color="#102434"/>
      <stop offset="55%" stop-color="#0a1520"/>
      <stop offset="100%" stop-color="#071018"/>
    </linearGradient>
    <linearGradient id="panel" x1="0" y1="0" x2="1" y2="1">
      <stop offset="0%" stop-color="#101f2d" stop-opacity="0.92"/>
      <stop offset="100%" stop-color="#09141f" stop-opacity="0.98"/>
    </linearGradient>
    <linearGradient id="line" x1="0" y1="0" x2="1" y2="0">
      <stop offset="0%" stop-color="#ffffff" stop-opacity="0"/>
      <stop offset="25%" stop-color="#ffffff" stop-opacity="0.22"/>
      <stop offset="100%" stop-color="#ffffff" stop-opacity="0"/>
    </linearGradient>
  </defs>
  <rect width="1200" height="630" fill="url(#bg)"/>
  <g opacity="0.08">
    <path d="M0 70H1200" stroke="#fff" stroke-width="2"/>
    <path d="M0 140H1200" stroke="#fff" stroke-width="2"/>
    <path d="M0 210H1200" stroke="#fff" stroke-width="2"/>
    <path d="M0 280H1200" stroke="#fff" stroke-width="2"/>
    <path d="M0 350H1200" stroke="#fff" stroke-width="2"/>
    <path d="M0 420H1200" stroke="#fff" stroke-width="2"/>
    <path d="M0 490H1200" stroke="#fff" stroke-width="2"/>
    <path d="M0 560H1200" stroke="#fff" stroke-width="2"/>
    <path d="M90 0V630" stroke="#fff" stroke-width="2"/>
    <path d="M180 0V630" stroke="#fff" stroke-width="2"/>
    <path d="M270 0V630" stroke="#fff" stroke-width="2"/>
    <path d="M360 0V630" stroke="#fff" stroke-width="2"/>
    <path d="M450 0V630" stroke="#fff" stroke-width="2"/>
    <path d="M540 0V630" stroke="#fff" stroke-width="2"/>
    <path d="M630 0V630" stroke="#fff" stroke-width="2"/>
    <path d="M720 0V630" stroke="#fff" stroke-width="2"/>
    <path d="M810 0V630" stroke="#fff" stroke-width="2"/>
    <path d="M900 0V630" stroke="#fff" stroke-width="2"/>
    <path d="M990 0V630" stroke="#fff" stroke-width="2"/>
    <path d="M1080 0V630" stroke="#fff" stroke-width="2"/>
  </g>
  <rect x="110" y="116" width="980" height="398" rx="34" fill="url(#panel)" stroke="#ffffff" stroke-opacity="0.08"/>
  <path d="M70 130H1130" stroke="url(#line)" stroke-width="4"/>
  <g transform="translate(130 78)">
    <circle cx="0" cy="52" r="44" fill="#202933" stroke="#dfe6ee" stroke-opacity="0.56" stroke-width="8"/>
    <circle cx="0" cy="52" r="18" fill="#f5f7fb" opacity="0.88"/>
    <circle cx="-20" cy="32" r="7" fill="#d8dfe7" opacity="0.74"/>
    <circle cx="20" cy="32" r="7" fill="#d8dfe7" opacity="0.74"/>
    <circle cx="-20" cy="72" r="7" fill="#d8dfe7" opacity="0.74"/>
    <circle cx="20" cy="72" r="7" fill="#d8dfe7" opacity="0.74"/>
  </g>
  <text x="160" y="255" fill="#80f8d2" font-family="Arial, sans-serif" font-size="24" letter-spacing="7">OMDB POWERED MOVIE SEARCH</text>
  <text x="160" y="375" fill="#f7f8fb" font-family="Arial, sans-serif" font-size="118" font-weight="800">REELSCOUT</text>
  <text x="160" y="445" fill="#aebdca" font-family="Arial, sans-serif" font-size="36">Search movies, sort them fast, and jump straight to IMDb.</text>
  <rect x="160" y="480" width="280" height="64" rx="18" fill="#141f2a" stroke="#ffffff" stroke-opacity="0.08"/>
  <text x="194" y="522" fill="#f7f8fb" font-family="Arial, sans-serif" font-size="30">Batman</text>
  <rect x="456" y="480" width="216" height="64" rx="18" fill="#ffb759"/>
  <text x="520" y="522" fill="#101215" font-family="Arial, sans-serif" font-size="30" font-weight="700">Search</text>
  <rect x="868" y="186" width="150" height="220" rx="22" fill="#ffffff" fill-opacity="0.05" stroke="#ffffff" stroke-opacity="0.08"/>
  <rect x="886" y="204" width="114" height="150" rx="16" fill="#202933"/>
  <text x="943" y="387" text-anchor="middle" fill="#f7f8fb" font-family="Arial, sans-serif" font-size="26" font-weight="700">IMDb Link</text>
</svg>
